{"title":"Fast.and.Furious.6.2013.WEBRip.XviD BEST AVAILABLE","uid":8670332,"size":822921620,"categoryP":"video","categoryS":"movies","magnet":"?xt=urn:btih:e8e2f3199297308b7706f2a6cd133664ddb3cd05&amp;dn=Fast.and.Furious.6.2013.WEBRip.XviD+BEST+AVAILABLE&amp;tr=udp%3A%2F%2Ftracker.openbittorrent.com%3A80&amp;tr=udp%3A%2F%2Fopen.demonii.com%3A1337&amp;tr=udp%3A%2F%2Ftracker.coppersurfer.tk%3A6969&amp;tr=udp%3A%2F%2Fexodus.desync.com%3A6969","seeders":1,"leechers":0,"uploader":"DrSeeder","files":-1,"time":1373484439,"description":"General\nComplete name                    : Fast.and.Furious.6.2013.WEBRip.XviD BEST AVAILABLEFast.and.Furious.6.2013.WEBRip.XviD.avi\nFormat                           : AVI\nFormat/Info                      : Audio Video Interleave\nFormat profile                   : OpenDML\nFormat settings                  : rec\nFile size                        : 785 MiB\nDuration                         : 2h 10mn\nOverall bit rate mode            : Variable\nOverall bit rate                 : 843 Kbps\nWriting application              : AVI-Mux GUI 1.17.8, Aug 30 2008  12:36:58\n\nVideo\nID                               : 0\nFormat                           : MPEG-4 Visual\nFormat profile                   : Simple@L3\nFormat settings, BVOP            : No\nFormat settings, QPel            : No\nFormat settings, GMC             : No warppoints\nFormat settings, Matrix          : Default (H.263)\nCodec ID                         : XVID\nCodec ID/Hint                    : XviD\nDuration                         : 2h 10mn\nBit rate                         : 728 Kbps\nWidth                            : 640 pixels\nHeight                           : 272 pixels\nDisplay aspect ratio             : 2.35:1\nFrame rate                       : 23.976 fps\nColor space                      : YUV\nChroma subsampling               : 4:2:0\nBit depth                        : 8 bits\nScan type                        : Progressive\nCompression mode                 : Lossy\nBits/(Pixel*Frame)               : 0.174\nStream size                      : 677 MiB (86%)\nWriting library                  : XviD 1.1.2 (UTC 2006-11-01)\n\nAudio\nID                               : 1\nFormat                           : MPEG Audio\nFormat version                   : Version 1\nFormat profile                   : Layer 3\nMode                             : Joint stereo\nMode extension                   : MS Stereo\nCodec ID                         : 55\nCodec ID/Hint                    : MP3\nDuration                         : 2h 10mn\nBit rate mode                    : Variable\nBit rate                         : 112 Kbps\nChannel(s)                       : 2 channels\nSampling rate                    : 44.1 KHz\nCompression mode                 : Lossy\nStream size                      : 99.7 MiB (13%)\nAlignment                        : Aligned on interleaves\nInterleave, duration             : 26 ms (0.63 video frame)\nInterleave, preload duration     : 77 ms\nTitle                            : 1\nWriting library                  : LAME3.99r\nEncoding settings                : -m j -V 4 -q 2 -lowpass 15.6 --abr 112\n","torrent":{"xt":"urn:btih:e8e2f3199297308b7706f2a6cd133664ddb3cd05","amp;dn":"Fast.and.Furious.6.2013.WEBRip.XviD+BEST+AVAILABLE","amp;tr":["udp%3A%2F%2Ftracker.openbittorrent.com%3A80","udp%3A%2F%2Fopen.demonii.com%3A1337","udp%3A%2F%2Ftracker.coppersurfer.tk%3A6969","udp%3A%2F%2Fexodus.desync.com%3A6969"],"infoHash":"e8e2f3199297308b7706f2a6cd133664ddb3cd05","infoHashBuffer":{"type":"Buffer","data":[232,226,243,25,146,151,48,139,119,6,242,166,205,19,54,100,221,179,205,5]},"announce":[],"urlList":[]}}